# xmcd CD database file
#
# Track frame offsets:
#	150
#	22347
#	61835
#	108727
#	143562
#	194105
#	237170
#	256422
#
# Disc length: 3723 seconds
#
# Revision: 0
# Processed by: cddbd v1.4PL0 Copyright (c) Steve Scherf et al.
# Submitted via: CDex 1.50
#
DISCID=760e8908
DTITLE=Joe Gallant and Illuminati - Live Vol 1
DYEAR=1997
DGENRE=Jazz
TTITLE0=Hard To Handle
TTITLE1=West LA Fadeaway
TTITLE2=Feel Like A Stranger
TTITLE3=Bird Song
TTITLE4=Vista
TTITLE5=Corrina
TTITLE6=Bird Song
TTITLE7=The Ocean
EXTD=YEAR: 1997
EXTT0=
EXTT1=
EXTT2=
EXTT3=
EXTT4=
EXTT5=
EXTT6=
EXTT7=
PLAYORDER=
